# Blender 3.2.1
# www.blender.org
mtllib gun.mtl
o Cylinder
v 0.000000 -0.555762 -1.160000
v 0.000000 4.058135 -1.160000
v 0.732642 -0.555762 -0.723248
v 0.732642 4.058135 -0.723248
v 0.913590 -0.555762 0.258124
v 0.913590 4.058135 0.258124
v 0.406586 -0.555762 1.045124
v 0.406586 4.058135 1.045124
v -0.406586 -0.555762 1.045124
v -0.406586 4.058135 1.045124
v -0.913590 -0.555762 0.258124
v -0.913590 4.058135 0.258124
v -0.732642 -0.555762 -0.723248
v -0.732642 4.058135 -0.723248
v 0.000000 2.953971 -1.160000
v 0.732642 2.953971 -0.723248
v 0.913590 2.953971 0.258124
v 0.406586 2.953971 1.045124
v -0.406586 2.953971 1.045124
v -0.913590 2.953971 0.258124
v -0.732642 2.953971 -0.723248
v 0.732642 2.575243 -0.723248
v 0.913590 2.575243 0.258124
v 0.406586 2.575243 1.045124
v -0.406586 2.575243 1.045124
v -0.913590 2.575243 0.258124
v -0.732642 2.575243 -0.723248
v 0.000000 2.575243 -1.160000
v 0.406586 3.154161 1.784096
v -0.406586 3.154161 1.784096
v 0.406586 2.775433 1.784096
v -0.406586 2.775433 1.784096
v 0.406586 3.595717 2.191104
v -0.406586 3.595717 2.191104
v 0.406586 3.410080 2.521216
v -0.406586 3.410080 2.521216
v 0.406586 3.887376 2.173814
v -0.406586 3.887376 2.173814
v 0.406586 3.785221 2.538506
v -0.406586 3.785221 2.538506
vn 0.5121 -0.0000 -0.8590
vn 0.9834 -0.0000 -0.1813
vn 0.8407 -0.0000 0.5416
vn -0.0000 -0.0000 1.0000
vn -0.8407 -0.0000 0.5416
vn -0.0000 1.0000 -0.0000
vn -0.9834 -0.0000 -0.1813
vn -0.5121 -0.0000 -0.8590
vn -0.0000 -1.0000 -0.0000
vn -0.0000 0.9652 -0.2615
vn -1.0000 -0.0000 -0.0000
vn -0.0000 -0.9652 0.2615
vn 1.0000 -0.0000 -0.0000
vn -0.0000 -0.0460 0.9989
vn -0.0000 0.6778 -0.7353
vn -0.0000 -0.7578 0.6525
vn -0.0000 0.9629 0.2697
vn -0.0000 -0.0592 -0.9982
vt 0.750000 0.490000
vt 1.000000 0.500000
vt 0.000000 0.500000
vt 1.000000 1.000000
vt 0.250000 0.490000
vt 0.000000 1.000000
vt 0.937640 0.399638
vt 0.857143 0.500000
vt 0.857143 1.000000
vt 0.437640 0.399638
vt 0.983983 0.196595
vt 0.714286 0.500000
vt 0.714286 1.000000
vt 0.483983 0.196595
vt 0.854132 0.033767
vt 0.571429 0.500000
vt 0.571429 1.000000
vt 0.354132 0.033767
vt 0.645868 0.033767
vt 0.428571 0.500000
vt 0.428571 1.000000
vt 0.145868 0.033767
vt 0.516017 0.196595
vt 0.285714 0.500000
vt 0.016017 0.196595
vt 0.285714 1.000000
vt 0.562360 0.399638
vt 0.142857 0.500000
vt 0.062360 0.399638
vt 0.142857 1.000000
vt 0.000000 0.880344
vt 1.000000 0.880344
vt 0.857143 0.880344
vt 0.714286 0.880344
vt 0.571429 0.880344
vt 0.428571 0.880344
vt 0.285714 0.880344
vt 0.142857 0.880344
vt 0.857143 0.839301
vt 0.714286 0.839301
vt 0.571429 0.839301
vt 0.428571 0.839301
vt 0.285714 0.839302
vt 0.142857 0.839301
vt 1.000000 0.839302
vt 0.000000 0.839301
vt 0.571429 0.880344
vt 0.428571 0.880344
vt 0.571429 0.839301
vt 0.428571 0.839301
vt 0.571429 0.880344
vt 0.428571 0.880344
vt 0.571429 0.839301
vt 0.428571 0.839301
vt 0.571429 0.880344
vt 0.428571 0.880344
vt 0.571429 0.839301
vt 0.428571 0.839301
s 0
f 15/32/1 2/4/1 4/9/1 16/33/1
f 16/33/2 4/9/2 6/13/2 17/34/2
f 17/34/3 6/13/3 8/17/3 18/35/3
f 18/35/4 8/17/4 10/21/4 19/36/4
f 19/36/5 10/21/5 12/26/5 20/37/5
f 4/10/6 2/5/6 14/29/6 12/25/6 10/22/6 8/18/6 6/14/6
f 20/37/7 12/26/7 14/30/7 21/38/7
f 21/38/8 14/30/8 2/6/8 15/31/8
f 1/1/9 3/7/9 5/11/9 7/15/9 9/19/9 11/23/9 13/27/9
f 27/44/8 21/38/8 15/31/8 28/46/8
f 26/43/7 20/37/7 21/38/7 27/44/7
f 25/42/5 19/36/5 20/37/5 26/43/5
f 18/35/10 19/36/10 30/48/10 29/47/10
f 23/40/3 17/34/3 18/35/3 24/41/3
f 22/39/2 16/33/2 17/34/2 23/40/2
f 28/45/1 15/32/1 16/33/1 22/39/1
f 1/2/1 28/45/1 22/39/1 3/8/1
f 3/8/2 22/39/2 23/40/2 5/12/2
f 5/12/3 23/40/3 24/41/3 7/16/3
f 7/16/4 24/41/4 25/42/4 9/20/4
f 9/20/5 25/42/5 26/43/5 11/24/5
f 11/24/7 26/43/7 27/44/7 13/28/7
f 13/28/8 27/44/8 28/46/8 1/3/8
f 30/48/11 32/50/11 36/54/11 34/52/11
f 19/36/11 25/42/11 32/50/11 30/48/11
f 25/42/12 24/41/12 31/49/12 32/50/12
f 24/41/13 18/35/13 29/47/13 31/49/13
f 36/54/14 35/53/14 39/57/14 40/58/14
f 29/47/15 30/48/15 34/52/15 33/51/15
f 32/50/16 31/49/16 35/53/16 36/54/16
f 31/49/13 29/47/13 33/51/13 35/53/13
f 39/57/17 37/55/17 38/56/17 40/58/17
f 35/53/13 33/51/13 37/55/13 39/57/13
f 34/52/11 36/54/11 40/58/11 38/56/11
f 33/51/18 34/52/18 38/56/18 37/55/18
o Cylinder.001
v 0.000000 5.864957 -1.211409
v 0.000000 5.864957 8.025269
v 0.906925 5.428205 -1.211409
v 0.906925 5.428205 8.025269
v 1.130916 4.446833 -1.211409
v 1.130916 4.446833 8.025269
v 0.503305 3.659833 -1.211409
v 0.503305 3.659833 8.025269
v -0.503305 3.659833 -1.211409
v -0.503305 3.659833 8.025269
v -1.130916 4.446833 -1.211409
v -1.130916 4.446833 8.025269
v -0.906925 5.428205 -1.211409
v -0.906925 5.428205 8.025269
v 0.000000 5.864957 1.789032
v 0.906925 5.428205 1.789032
v 1.130916 4.446833 1.789032
v 0.503305 3.659833 1.789032
v -0.503305 3.659833 1.789032
v -1.130916 4.446833 1.789032
v -0.906925 5.428205 1.789032
v 0.906925 5.428205 1.478419
v 1.130916 4.446833 1.478419
v 0.503305 3.659833 1.478419
v -0.503305 3.659833 1.478419
v -1.130916 4.446833 1.478419
v -0.906925 5.428205 1.478419
v 0.000000 5.864957 1.478419
v 0.503305 3.365180 1.649726
v -0.503305 3.365180 1.649726
v 0.503305 3.459421 1.353754
v -0.503305 3.459421 1.353754
v 0.906925 5.428205 8.025269
v 0.000000 5.864957 8.025269
v 1.130916 4.446833 8.025269
v 0.503305 3.659833 8.025269
v -0.503305 3.659833 8.025269
v -1.130916 4.446833 8.025269
v -0.906925 5.428205 8.025269
v 0.686281 4.841877 8.025269
v 0.320841 5.326881 8.025269
v 0.534937 4.253769 8.025269
v -0.019225 4.005415 8.025269
v -0.558910 4.283830 8.025269
v -0.677725 4.879362 8.025269
v -0.286199 5.343564 8.025269
v 0.686281 4.841877 8.025269
v 0.320841 5.326881 8.025269
v 0.534937 4.253769 8.025269
v -0.019225 4.005415 8.025269
v -0.558910 4.283830 8.025269
v -0.677725 4.879362 8.025269
v -0.286199 5.343564 8.025269
v 0.580229 4.820718 7.836452
v 0.271261 5.230774 7.836452
v 0.452273 4.323492 7.836452
v -0.016254 4.113516 7.836452
v -0.472541 4.348907 7.836452
v -0.572995 4.852411 7.836452
v -0.241972 5.244879 7.836452
v 0.580229 4.820718 3.798468
v 0.271261 5.230774 3.798468
v 0.452273 4.323492 3.798467
v -0.016254 4.113516 3.798467
v -0.472541 4.348907 3.798467
v -0.572995 4.852411 3.798468
v -0.241972 5.244879 3.798468
vn 0.4339 0.9010 -0.0000
vn 0.9749 0.2225 -0.0000
vn 0.7818 -0.6235 -0.0000
vn -0.0000 -1.0000 -0.0000
vn -0.7818 -0.6235 -0.0000
vn -0.0000 -0.0000 1.0000
vn -0.9749 0.2225 -0.0000
vn -0.4339 0.9010 -0.0000
vn -0.0000 -0.0000 -1.0000
vn -0.0000 -0.4274 0.9041
vn -0.0000 -0.9529 -0.3034
vn -1.0000 -0.0000 -0.0000
vn -0.0000 0.5282 -0.8491
vn 1.0000 -0.0000 -0.0000
vn -0.3634 0.8109 0.4586
vn -0.0275 -0.9996 -0.0000
vn -0.7097 -0.5348 0.4586
vn 0.6793 -0.5729 0.4586
vn 0.4074 0.7898 0.4586
vn -0.8606 0.2215 0.4586
vn -0.0244 -0.8883 0.4586
vn 0.8715 0.1739 0.4586
vn 0.9807 0.1957 -0.0000
vn -0.4090 0.9125 -0.0000
vn -0.7987 -0.6018 -0.0000
vn 0.7644 -0.6447 -0.0000
vn 0.4585 0.8887 -0.0000
vn -0.9684 0.2492 -0.0000
vt 0.750000 0.490000
vt 1.000000 0.500000
vt 0.000000 0.500000
vt 0.000000 1.000000
vt 1.000000 1.000000
vt 0.937640 0.399638
vt 0.857143 0.500000
vt 0.857143 1.000000
vt 0.983983 0.196595
vt 0.714286 0.500000
vt 0.714286 1.000000
vt 0.854132 0.033767
vt 0.571429 0.500000
vt 0.571429 1.000000
vt 0.645868 0.033767
vt 0.428571 0.500000
vt 0.428571 1.000000
vt 0.516017 0.196595
vt 0.285714 0.500000
vt 0.285714 1.000000
vt 0.562360 0.399638
vt 0.142857 0.500000
vt 0.142857 1.000000
vt 0.000000 0.662420
vt 1.000000 0.662420
vt 0.857143 0.662420
vt 0.714286 0.662420
vt 0.571429 0.662420
vt 0.428571 0.662420
vt 0.285714 0.662420
vt 0.142857 0.662420
vt 0.857143 0.645606
vt 0.714286 0.645606
vt 0.571429 0.645606
vt 0.428571 0.645606
vt 0.285714 0.645606
vt 0.142857 0.645606
vt 1.000000 0.645606
vt 0.000000 0.645606
vt 0.571429 0.662420
vt 0.428571 0.662420
vt 0.571429 0.645606
vt 0.428571 0.645606
vt 0.857143 1.000000
vt 0.000000 1.000000
vt 1.000000 1.000000
vt 0.714286 1.000000
vt 0.571429 1.000000
vt 0.428571 1.000000
vt 0.285714 1.000000
vt 0.142857 1.000000
vt 0.857143 1.000000
vt 0.000000 1.000000
vt 1.000000 1.000000
vt 0.714286 1.000000
vt 0.571429 1.000000
vt 0.428571 1.000000
vt 0.285714 1.000000
vt 0.142857 1.000000
vt 0.857143 1.000000
vt 1.000000 1.000000
vt 0.000000 1.000000
vt 0.714286 1.000000
vt 0.571429 1.000000
vt 0.428571 1.000000
vt 0.285714 1.000000
vt 0.142857 1.000000
vt 0.857143 1.000000
vt 0.000000 1.000000
vt 1.000000 1.000000
vt 0.714286 1.000000
vt 0.571429 1.000000
vt 0.428571 1.000000
vt 0.285714 1.000000
vt 0.142857 1.000000
vt 0.437640 0.399638
vt 0.857143 1.000000
vt 0.000000 1.000000
vt 0.250000 0.490000
vt 1.000000 1.000000
vt 0.483983 0.196595
vt 0.714286 1.000000
vt 0.354132 0.033767
vt 0.571429 1.000000
vt 0.145868 0.033767
vt 0.428571 1.000000
vt 0.016017 0.196595
vt 0.285714 1.000000
vt 0.062360 0.399638
vt 0.142857 1.000000
s 0
f 55/83/19 42/63/19 44/66/19 56/84/19
f 56/84/20 44/66/20 46/69/20 57/85/20
f 57/85/21 46/69/21 48/72/21 58/86/21
f 58/86/22 48/72/22 50/75/22 59/87/22
f 59/87/23 50/75/23 52/78/23 60/88/23
f 42/62/24 54/81/24 79/109/24 74/103/24
f 60/88/25 52/78/25 54/81/25 61/89/25
f 61/89/26 54/81/26 42/62/26 55/82/26
f 41/59/27 43/64/27 45/67/27 47/70/27 49/73/27 51/76/27 53/79/27
f 67/95/26 61/89/26 55/82/26 68/97/26
f 66/94/25 60/88/25 61/89/25 67/95/25
f 65/93/23 59/87/23 60/88/23 66/94/23
f 58/86/28 59/87/28 70/99/28 69/98/28
f 63/91/21 57/85/21 58/86/21 64/92/21
f 62/90/20 56/84/20 57/85/20 63/91/20
f 68/96/19 55/83/19 56/84/19 62/90/19
f 41/60/19 68/96/19 62/90/19 43/65/19
f 43/65/20 62/90/20 63/91/20 45/68/20
f 45/68/21 63/91/21 64/92/21 47/71/21
f 47/71/22 64/92/22 65/93/22 49/74/22
f 49/74/23 65/93/23 66/94/23 51/77/23
f 51/77/25 66/94/25 67/95/25 53/80/25
f 53/80/26 67/95/26 68/97/26 41/61/26
f 71/100/29 69/98/29 70/99/29 72/101/29
f 59/87/30 65/93/30 72/101/30 70/99/30
f 65/93/31 64/92/31 71/100/31 72/101/31
f 64/92/32 58/86/32 69/98/32 71/100/32
f 74/103/24 79/109/24 86/117/24 81/111/24
f 46/69/24 44/66/24 73/102/24 75/105/24
f 52/78/24 50/75/24 77/107/24 78/108/24
f 44/66/24 42/63/24 74/104/24 73/102/24
f 48/72/24 46/69/24 75/105/24 76/106/24
f 54/81/24 52/78/24 78/108/24 79/109/24
f 50/75/24 48/72/24 76/106/24 77/107/24
f 86/117/24 85/116/24 92/124/24 93/125/24
f 78/108/24 77/107/24 84/115/24 85/116/24
f 76/106/24 75/105/24 82/113/24 83/114/24
f 73/102/24 74/104/24 81/112/24 80/110/24
f 79/109/24 78/108/24 85/116/24 86/117/24
f 77/107/24 76/106/24 83/114/24 84/115/24
f 75/105/24 73/102/24 80/110/24 82/113/24
f 90/122/33 89/121/33 96/129/33 97/130/33
f 84/115/24 83/114/24 90/122/24 91/123/24
f 82/113/24 80/110/24 87/118/24 89/121/24
f 81/111/24 86/117/24 93/125/24 88/120/24
f 85/116/24 84/115/24 91/123/24 92/124/24
f 83/114/24 82/113/24 89/121/24 90/122/24
f 80/110/24 81/112/24 88/119/24 87/118/24
f 95/127/34 100/133/34 107/148/34 102/136/34
f 87/118/35 88/119/35 95/128/35 94/126/35
f 93/125/36 92/124/36 99/132/36 100/133/36
f 91/123/37 90/122/37 97/130/37 98/131/37
f 89/121/38 87/118/38 94/126/38 96/129/38
f 88/120/39 93/125/39 100/133/39 95/127/39
f 92/124/40 91/123/40 98/131/40 99/132/40
f 101/134/24 102/137/24 107/147/24 106/145/24 105/143/24 104/141/24 103/139/24
f 99/132/41 98/131/41 105/144/41 106/146/41
f 97/130/42 96/129/42 103/140/42 104/142/42
f 94/126/43 95/128/43 102/138/43 101/135/43
f 100/133/44 99/132/44 106/146/44 107/148/44
f 98/131/45 97/130/45 104/142/45 105/144/45
f 96/129/46 94/126/46 101/135/46 103/140/46
